<svg width="18" height="20" viewBox="0 0 18 20" fill="none" xmlns="http://www.w3.org/2000/svg">
<path d="M11.6069 9.68235H11.6478C12.3053 9.68235 12.9592 9.53857 13.529 9.21055C14.5 8.65163 15.1714 8.11659 15.6122 7.61456M11.6069 9.68235H6.67713C6.62623 9.68235 6.57535 9.68149 6.52453 9.67975M11.6069 9.68235V8.62353M11.6069 9.68235V10.7412M6.101 3.96471H4.55949C3.90198 3.96471 3.2202 4.08132 2.73682 4.52703C1.97928 5.22555 1.56573 6.30834 2.71277 7.61456M6.101 3.96471V3.11765C6.101 1.9481 7.0491 1 8.21865 1H9.91277C11.0823 1 12.0304 1.9481 12.0304 3.11765V3.96471M6.101 3.96471H12.0304M12.0304 3.96471H13.7655C14.423 3.96471 15.1048 4.08132 15.5882 4.52703C16.3457 5.22555 16.7592 6.30833 15.6122 7.61456M6.52453 8.62353V9.67975M6.52453 9.67975V10.7412M6.52453 9.67975C5.91889 9.65899 5.32166 9.51317 4.79593 9.21055C3.82498 8.65163 3.15361 8.11659 2.71277 7.61456M2.71277 7.61456C-0.300853 11.141 0.797637 16.5601 4.94661 18.6346L5.10814 18.7154C5.15608 18.7394 5.20466 18.7619 5.25379 18.7829M15.6122 7.61456L15.725 7.7746C18.283 11.4051 17.1502 16.4504 13.2856 18.6388C12.8674 18.8755 12.3951 19 11.9146 19H6.31367C5.94879 19 5.58827 18.9259 5.25379 18.7829M1.01865 12.4353H3.13615C4.30569 12.4353 5.25379 13.3834 5.25379 14.5529V18.7829M5.25379 18.7829V18.7882M16.901 12.4353H14.9951C13.8256 12.4353 12.8775 13.3834 12.8775 14.5529V18.7882" stroke="black" stroke-width="1.5" stroke-linecap="round" stroke-linejoin="round"/>
</svg>
