<svg width="27" height="27" viewBox="0 0 27 27" fill="none" xmlns="http://www.w3.org/2000/svg">
<rect width="26.1936" height="26.1936" rx="5" fill="#01A0C7"/>
<path d="M9.05859 6.26317V5.02075M17.1344 6.26317V5.02075M20.7684 10.4056H12.0869M5.02051 10.4056H8.1499M14.7115 21.1732H11.4812C8.43578 21.1732 6.91268 21.1732 5.967 20.2024C5.02051 19.2325 5.02051 17.6704 5.02051 14.5469V12.8904C5.02051 9.76695 5.02051 8.20482 5.967 7.2349C6.91268 6.26416 8.43578 6.26416 11.4812 6.26416H14.7115C17.7569 6.26416 19.28 6.26416 20.2257 7.2349C21.1722 8.20482 21.1722 9.76695 21.1722 12.8904V14.5469C21.1722 17.6704 21.1722 19.2325 20.2257 20.2024C19.6984 20.7441 18.9917 20.9835 17.9419 21.0887M17.9423 16.6172C17.9423 17.3033 17.3999 17.8596 16.7309 17.8596C16.0619 17.8596 15.5195 17.3033 15.5195 16.6172C15.5195 15.931 16.0619 15.3748 16.7309 15.3748C17.3999 15.3748 17.9423 15.931 17.9423 16.6172Z" stroke="white" stroke-linecap="round"/>
</svg>
