<svg width="17" height="19" viewBox="0 0 17 19" fill="none" xmlns="http://www.w3.org/2000/svg">
<path d="M4 1V2.25M4 2.25V3.5M4 2.25C2.34315 2.25 1 3.59315 1 5.25V15C1 16.6569 2.34315 18 4 18H9.5M12 18H13C14.6569 18 16 16.6569 16 15V6M13 2.25V3.5M13 2.25V1M13 2.25H6.5M13 2.25C14.6569 2.25 16 3.59315 16 5.25V6M16 6H3.5M9 11.5V13.5C9 14.0523 9.44771 14.5 10 14.5H12C12.5523 14.5 13 14.0523 13 13.5V11.5C13 10.9477 12.5523 10.5 12 10.5H10C9.44771 10.5 9 10.9477 9 11.5Z" stroke="black" stroke-width="1.5" stroke-linecap="round" stroke-linejoin="round"/>
</svg>
