<svg width="18" height="18" viewBox="0 0 18 18" fill="none" xmlns="http://www.w3.org/2000/svg">
<g id="Group 542">
<path id="Vector" d="M12.5493 10.8128C12.3787 10.8139 12.2145 10.7481 12.0916 10.6297L9.31928 7.94827C8.89363 7.54102 8.55486 7.05174 8.32342 6.50996C8.09198 5.96817 7.97266 5.38511 7.97266 4.79594C7.97266 4.20677 8.09198 3.6237 8.32342 3.08192C8.55486 2.54013 8.89363 2.05086 9.31928 1.64361C10.1907 0.815052 11.347 0.353027 12.5493 0.353027C13.7516 0.353027 14.908 0.815052 15.7794 1.64361C16.205 2.05086 16.5438 2.54013 16.7752 3.08192C17.0067 3.6237 17.126 4.20677 17.126 4.79594C17.126 5.38511 17.0067 5.96817 16.7752 6.50996C16.5438 7.05174 16.205 7.54102 15.7794 7.94827L13.007 10.6297C12.8842 10.7481 12.7199 10.8139 12.5493 10.8128ZM12.5493 1.65669C11.6841 1.65139 10.851 1.98468 10.2281 2.58538C9.92821 2.87012 9.68935 3.21295 9.52613 3.59299C9.36291 3.97303 9.27874 4.38232 9.27874 4.79594C9.27874 5.20956 9.36291 5.61885 9.52613 5.99889C9.68935 6.37892 9.92821 6.72175 10.2281 7.00649L12.5493 9.24975L14.8705 7.00649C15.1704 6.72175 15.4093 6.37892 15.5725 5.99889C15.7357 5.61885 15.8199 5.20956 15.8199 4.79594C15.8199 4.38232 15.7357 3.97303 15.5725 3.59299C15.4093 3.21295 15.1704 2.87012 14.8705 2.58538C14.2468 1.98587 13.4143 1.65278 12.5493 1.65669Z" fill="black"/>
<path id="Vector_2" d="M5.35779 17.353C5.24325 17.3538 5.13052 17.3245 5.03087 17.268L0.453885 14.652C0.354104 14.5943 0.271317 14.5114 0.213907 14.4114C0.156496 14.3115 0.126501 14.1982 0.126958 14.083V2.31078C0.126501 2.19554 0.156496 2.08222 0.213907 1.98231C0.271317 1.88239 0.354104 1.79942 0.453885 1.7418C0.553284 1.68439 0.666037 1.65417 0.780813 1.65417C0.895588 1.65417 1.00834 1.68439 1.10774 1.7418L5.68472 4.35784C5.7845 4.41546 5.86729 4.49843 5.9247 4.59835C5.98211 4.69826 6.01211 4.81158 6.01165 4.92682V16.699C6.01211 16.8142 5.98211 16.9276 5.9247 17.0275C5.86729 17.1274 5.7845 17.2104 5.68472 17.268C5.58507 17.3245 5.47233 17.3538 5.35779 17.353ZM1.43467 13.7036L4.70394 15.5741V5.30615L1.43467 3.43568V13.7036Z" fill="black"/>
<path id="Vector_3" d="M5.35698 17.3529C5.24244 17.3537 5.12971 17.3244 5.03006 17.2679C4.93028 17.2103 4.84749 17.1273 4.79008 17.0274C4.73267 16.9275 4.70267 16.8142 4.70313 16.6989V4.92676C4.70267 4.81151 4.73267 4.69819 4.79008 4.59828C4.84749 4.49836 4.93028 4.41539 5.03006 4.35777L8.95318 2.11451C9.0282 2.07153 9.111 2.04386 9.19677 2.0331C9.28255 2.02234 9.36962 2.0287 9.45292 2.05181C9.53623 2.07492 9.61412 2.11433 9.68211 2.16775C9.75009 2.22117 9.8068 2.28755 9.84897 2.36304C9.93421 2.51321 9.95662 2.69101 9.91129 2.85764C9.86597 3.02427 9.7566 3.16621 9.60704 3.25249L6.01084 5.30608V15.574L9.60704 13.5139C9.68174 13.471 9.76417 13.4432 9.84962 13.4321C9.93506 13.421 10.0219 13.4269 10.105 13.4493C10.1882 13.4718 10.2662 13.5104 10.3344 13.563C10.4027 13.6156 10.4599 13.6812 10.5028 13.7559C10.5458 13.8306 10.5736 13.9131 10.5846 13.9985C10.5957 14.084 10.5898 14.1708 10.5674 14.254C10.5449 14.3372 10.5063 14.4152 10.4537 14.4834C10.4011 14.5517 10.3356 14.6089 10.2609 14.6519L5.68391 17.2679C5.58426 17.3244 5.47152 17.3537 5.35698 17.3529Z" fill="black"/>
<path id="Vector_4" d="M14.5121 17.353C14.3976 17.3538 14.2848 17.3245 14.1852 17.268L9.60818 14.6519C9.5084 14.5943 9.42561 14.5113 9.3682 14.4114C9.31079 14.3115 9.2808 14.1982 9.28126 14.0829V8.19686C9.28126 8.0234 9.35014 7.85705 9.47276 7.7344C9.59539 7.61175 9.7617 7.54285 9.93511 7.54285C10.1085 7.54285 10.2748 7.61175 10.3975 7.7344C10.5201 7.85705 10.589 8.0234 10.589 8.19686V13.7036L13.8582 15.5741V8.85087C13.8582 8.67741 13.9271 8.51106 14.0497 8.38841C14.1724 8.26576 14.3387 8.19686 14.5121 8.19686C14.6855 8.19686 14.8518 8.26576 14.9744 8.38841C15.0971 8.51106 15.1659 8.67741 15.1659 8.85087V16.699C15.1664 16.8142 15.1364 16.9275 15.079 17.0275C15.0216 17.1274 14.9388 17.2104 14.839 17.268C14.7394 17.3245 14.6266 17.3538 14.5121 17.353Z" fill="black"/>
<path id="Vector_5" d="M12.5514 6.88878C12.1634 6.88878 11.7842 6.77371 11.4616 6.55812C11.139 6.34253 10.8876 6.0361 10.7392 5.67759C10.5907 5.31907 10.5518 4.92458 10.6275 4.54398C10.7032 4.16338 10.89 3.81378 11.1644 3.53939C11.4387 3.26499 11.7882 3.07813 12.1687 3.00242C12.5492 2.92672 12.9436 2.96557 13.3021 3.11407C13.6605 3.26257 13.9668 3.51405 14.1824 3.83671C14.3979 4.15936 14.513 4.5387 14.513 4.92675C14.513 5.44712 14.3063 5.94617 13.9384 6.31412C13.5706 6.68207 13.0716 6.88878 12.5514 6.88878ZM12.5514 4.27274C12.4221 4.27274 12.2957 4.3111 12.1881 4.38296C12.0806 4.45483 11.9968 4.55697 11.9473 4.67647C11.8978 4.79598 11.8849 4.92748 11.9101 5.05434C11.9353 5.18121 11.9976 5.29774 12.0891 5.38921C12.1805 5.48067 12.297 5.54296 12.4238 5.5682C12.5507 5.59343 12.6822 5.58048 12.8016 5.53098C12.9211 5.48148 13.0232 5.39765 13.0951 5.2901C13.1669 5.18255 13.2053 5.0561 13.2053 4.92675C13.2053 4.7533 13.1364 4.58695 13.0138 4.4643C12.8911 4.34165 12.7248 4.27274 12.5514 4.27274Z" fill="black"/>
</g>
</svg>
