<svg width="27" height="27" viewBox="0 0 27 27" fill="none" xmlns="http://www.w3.org/2000/svg">
<rect width="26.1936" height="26.1936" rx="5" fill="#01A0C7"/>
<path d="M10.9137 17.2341V16.1997M8.73107 4.82178L6.54841 7.92485M17.4617 4.82178L19.6444 7.92485M15.2791 17.2341V16.1997M5.45708 12.0623C6.07913 12.0623 6.60079 12.505 6.66845 13.0904L7.20866 17.6913C7.41383 19.4414 7.51642 20.3165 8.13738 20.844C8.75944 21.3715 9.68817 21.3715 11.5467 21.3715H14.6461C16.5046 21.3715 17.4333 21.3715 18.0554 20.844C18.6775 20.3165 18.779 19.4414 18.9841 17.6913L19.5243 13.0904C19.5574 12.8078 19.6992 12.5466 19.9227 12.3569C20.1462 12.1673 20.4357 12.0623 20.7357 12.0623M5.45708 12.0623H20.7357M5.45708 12.0623C4.8782 12.0623 4.32303 11.8443 3.9137 11.4564C3.50437 11.0684 3.27441 10.5422 3.27441 9.99357C3.27441 9.44491 3.50437 8.91872 3.9137 8.53076C4.32303 8.1428 4.8782 7.92485 5.45708 7.92485H20.7357C21.3146 7.92485 21.8698 8.1428 22.2791 8.53076C22.6884 8.91872 22.9184 9.44491 22.9184 9.99357C22.9184 10.5422 22.6884 11.0684 22.2791 11.4564C21.8698 11.8443 21.3146 12.0623 20.7357 12.0623" stroke="white" stroke-linecap="round"/>
</svg>
