<svg width="27" height="27" viewBox="0 0 27 27" fill="none" xmlns="http://www.w3.org/2000/svg">
<rect width="26.1936" height="26.1936" rx="5" fill="#01A0C7"/>
<path fill-rule="evenodd" clip-rule="evenodd" d="M13.0967 7.03044C11.1251 5.34077 8.91737 5.10406 7.12747 5.88685C5.2395 6.71536 3.92969 8.63521 3.92969 10.8489C3.92969 13.0242 4.87623 14.6845 6.11867 16.0232C7.11297 17.0949 8.32983 17.992 9.40514 18.7838C9.64902 18.9634 9.88523 19.138 10.1095 19.3078C10.547 19.6376 11.016 19.9886 11.4909 20.2547C11.9659 20.52 12.5083 20.7363 13.0967 20.7363C13.685 20.7363 14.2274 20.52 14.7024 20.2547C15.1782 19.9886 15.6463 19.6376 16.0838 19.3078C16.3174 19.1317 16.5522 18.957 16.7882 18.7838C17.8626 17.992 19.0803 17.0941 20.0746 16.0232C21.3171 14.6845 22.2636 13.0242 22.2636 10.8489C22.2636 8.63521 20.9547 6.71536 19.0658 5.88849C17.2759 5.10487 15.0682 5.34159 13.0967 7.03044Z" fill="white"/>
</svg>
