<svg width="207" height="61" viewBox="0 0 207 61" fill="none" xmlns="http://www.w3.org/2000/svg">
<g id="Group 401">
<g id="&#208;&#155;&#208;&#190;&#208;&#179;&#208;&#190;">
<g id="Vector">
<path d="M31.6597 0.282558C31.7458 0.28265 31.8319 0.282742 31.9205 0.282838C32.7436 0.291261 33.559 0.36065 34.3775 0.44356C34.4264 0.448507 34.4753 0.453455 34.5257 0.458552C34.573 0.463341 34.6203 0.46813 34.6691 0.473064C34.9546 0.501735 35.2347 0.526031 35.5216 0.522372C35.744 0.52013 35.744 0.52013 35.8855 0.591851C36.0178 0.608167 36.1505 0.621229 36.2833 0.632193C36.3542 0.638202 36.4251 0.644212 36.4982 0.650403C36.5527 0.654748 36.6073 0.659094 36.6634 0.663571C36.6634 0.710906 36.6634 0.758241 36.6634 0.807011C36.7393 0.793698 36.8151 0.780385 36.8933 0.766668C37.1375 0.737775 37.2187 0.742248 37.4414 0.807011C37.5975 0.844728 37.7537 0.882052 37.9099 0.919074C37.9911 0.938396 38.0722 0.957718 38.1558 0.977626C38.3489 1.02718 38.3489 1.02718 38.5022 1.02217C38.5022 1.06951 38.5022 1.11684 38.5022 1.16561C38.5985 1.14342 38.5985 1.14342 38.6967 1.12079C38.9498 1.09117 38.9958 1.11913 39.2095 1.23733C39.374 1.26463 39.5391 1.28845 39.7046 1.30905C39.9024 1.34552 40.0792 1.38789 40.2703 1.45249C40.2703 1.49983 40.2703 1.54716 40.2703 1.59593C40.313 1.60028 40.3557 1.60462 40.3996 1.6091C40.4562 1.61511 40.5127 1.62112 40.5709 1.62731C40.6267 1.63313 40.6825 1.63896 40.74 1.64496C40.8944 1.66596 41.0396 1.69782 41.1898 1.73937C41.1898 1.78671 41.1898 1.83404 41.1898 1.88281C41.2729 1.89169 41.356 1.90056 41.4417 1.90971C41.7231 1.9448 41.9803 2.0123 42.2506 2.09797C42.2506 2.14531 42.2506 2.19264 42.2506 2.24141C42.3206 2.21775 42.3907 2.19408 42.4628 2.16969C42.4628 2.21703 42.4628 2.26436 42.4628 2.31313C42.5255 2.32349 42.5882 2.33384 42.6529 2.34451C42.8497 2.37841 43.0452 2.41574 43.2408 2.45657C43.2408 2.50391 43.2408 2.55124 43.2408 2.60001C43.2826 2.60787 43.3244 2.61573 43.3676 2.62383C43.6989 2.69125 43.9458 2.76844 44.2309 2.95861C44.3471 3.01045 44.4633 3.06207 44.5805 3.11161C47.195 4.22868 49.6329 5.84255 51.7984 7.69214C51.8368 7.72466 51.8753 7.75718 51.9149 7.79069C52.4329 8.22925 52.9255 8.68051 53.3971 9.16997C53.5374 9.3122 53.6787 9.4427 53.8317 9.57031C54.0565 9.75931 54.24 9.97272 54.4287 10.1981C54.5568 10.346 54.6912 10.4823 54.8307 10.6192C55.1075 10.8962 55.3508 11.1937 55.594 11.5012C55.7561 11.7049 55.9229 11.9038 56.0904 12.1029C57.2649 13.5336 58.2668 15.1012 59.1537 16.7289C59.1871 16.7901 59.2205 16.8513 59.2549 16.9143C60.2541 18.7601 61.0171 20.6736 61.629 22.6816C61.6502 22.7503 61.6714 22.8189 61.6933 22.8896C62.202 24.5483 62.5342 26.2683 62.7606 27.9889C62.769 28.0515 62.7774 28.114 62.786 28.1785C62.9934 29.8216 62.9152 31.5002 62.902 33.1528C62.6861 32.9806 62.4991 32.8188 62.3274 32.6014C62.0152 32.2331 61.6546 31.9413 61.2754 31.6467C61.2375 31.6172 61.1996 31.5878 61.1606 31.5575C59.9682 30.6395 58.6599 30.0212 57.2087 29.6475C57.1522 29.6329 57.0956 29.6183 57.0373 29.6033C54.6311 29.0196 52.0715 29.5463 49.9614 30.797C49.6887 30.9685 49.4339 31.159 49.1816 31.3598C49.1437 31.3898 49.1059 31.4198 49.0669 31.4508C48.1756 32.165 47.468 32.9786 46.8477 33.9417C46.5276 33.9049 46.3643 33.7843 46.1183 33.5786C44.683 32.4319 42.6421 31.8195 40.8229 31.9604C40.61 31.9644 40.5165 31.9583 40.3425 31.8316C40.2497 31.7346 40.1599 31.6348 40.0725 31.5329C39.1332 30.4891 37.5497 29.63 36.1684 29.4233C36.0269 29.4218 35.8855 29.4215 35.744 29.4233C35.7963 29.4893 35.8485 29.5554 35.9023 29.6234C36.2616 30.0778 36.6195 30.533 36.9728 30.9922C37.3055 31.4239 37.6483 31.8466 37.9928 32.2685C38.2902 32.6333 38.5807 33.0028 38.8677 33.3761C39.061 33.6271 39.2573 33.8751 39.457 34.121C39.7315 34.459 39.9984 34.8023 40.2643 35.1472C40.5142 35.4707 40.7699 35.789 41.0276 36.1062C41.2068 36.3298 41.3819 36.5564 41.5566 36.7836C41.8527 37.1683 42.1559 37.5464 42.4628 37.9222C42.8367 38.3801 43.2027 38.8434 43.5634 39.312C43.8756 39.7174 44.1931 40.1183 44.5135 40.517C44.9147 41.0162 45.3131 41.5171 45.704 42.0246C46.0324 42.45 46.3691 42.8684 46.7057 43.2872C46.9674 43.6128 47.226 43.9409 47.4842 44.2694C47.5726 44.3815 47.661 44.4935 47.7494 44.6056C48.2544 45.2458 48.2544 45.2457 48.3633 45.3838C48.4376 45.4779 48.5118 45.572 48.586 45.6661C48.7396 45.8607 48.8932 46.0554 49.0465 46.2504C49.2932 46.5641 49.5418 46.8761 49.7917 47.1871C50.1546 47.6387 50.5138 48.0927 50.8673 48.5518C51.153 48.922 51.4455 49.2863 51.7386 49.6504C52.0248 50.0066 52.3057 50.3666 52.5846 50.7287C52.8292 51.0456 53.0799 51.3571 53.3322 51.6678C53.5192 51.9009 53.7022 52.137 53.8847 52.3738C54.1648 52.7369 54.4491 53.096 54.7378 53.4521C55.2698 54.1082 55.7975 54.7674 56.3131 55.437C56.5607 55.7578 56.8133 56.0744 57.0673 56.3901C57.3861 56.7862 57.7002 57.1856 58.0105 57.5886C58.2959 57.9583 58.5879 58.3223 58.8808 58.6859C59.1768 59.0541 59.4672 59.4263 59.7538 59.802C59.8984 59.9905 60.042 60.1717 60.2145 60.3347C60.1912 60.382 60.1678 60.4294 60.1438 60.4781C60.0805 60.4227 60.0173 60.3672 59.9521 60.3101C59.5208 59.9329 59.0883 59.5591 58.6415 59.2009C58.3862 58.9952 58.1335 58.7864 57.8806 58.5776C57.575 58.3254 57.2693 58.0736 56.9612 57.8245C56.6031 57.535 56.2481 57.2417 55.8928 56.9485C55.6295 56.7314 55.3656 56.515 55.1003 56.3004C54.8017 56.0589 54.5059 55.8139 54.2104 55.5684C53.6005 55.0617 52.9904 54.5554 52.3686 54.0637C51.9374 53.7227 51.5151 53.3714 51.0938 53.018C50.7799 52.7549 50.4642 52.4947 50.1455 52.2376C49.9027 52.0408 49.6614 51.842 49.4203 51.6431C49.3722 51.6035 49.3242 51.5639 49.2748 51.5231C49.0757 51.359 48.8768 51.1948 48.6778 51.0306C48.1797 50.6196 47.6813 50.209 47.1792 49.8031C46.8761 49.5565 46.575 49.3074 46.2736 49.0587C46.0179 48.8478 45.7617 48.6376 45.5039 48.4292C44.9555 47.9856 44.4127 47.535 43.8686 47.086C43.2028 46.5362 43.2028 46.5362 42.5335 45.9907C41.9851 45.5471 41.4423 45.0965 40.8982 44.6475C40.4 44.2365 39.9017 43.8259 39.3996 43.42C39.0965 43.1734 38.7954 42.9243 38.494 42.6756C38.2382 42.4647 37.982 42.2545 37.7243 42.0461C37.1759 41.6025 36.633 41.1519 36.0889 40.7029C35.5908 40.2919 35.0925 39.8813 34.5903 39.4754C34.2872 39.2288 33.9861 38.9797 33.6847 38.731C33.429 38.5201 33.1728 38.3099 32.9151 38.1015C32.3667 37.6579 31.8238 37.2073 31.2797 36.7583C30.5313 36.1403 30.5313 36.1403 29.7783 35.528C29.6249 35.4035 29.4722 35.2783 29.3197 35.1525C29.2719 35.1133 29.224 35.074 29.1747 35.0335C29.0796 34.9554 28.9847 34.8771 28.89 34.7985C28.8465 34.7629 28.8029 34.7273 28.7581 34.6906C28.7193 34.6585 28.6804 34.6265 28.6404 34.5935C28.5209 34.501 28.5209 34.501 28.318 34.4437C28.3019 34.5042 28.3019 34.5042 28.2854 34.5658C28.1327 35.111 27.9265 35.6286 27.7124 36.1516C27.6431 36.3224 27.5737 36.4932 27.5044 36.664C27.4739 36.7387 27.4434 36.8134 27.412 36.8903C27.3842 36.9586 27.3565 37.027 27.3279 37.0974C27.2874 37.1944 27.2874 37.1944 27.2461 37.2934C27.1661 37.5114 27.1766 37.5952 27.2571 37.8146C27.363 37.9687 27.4743 38.1157 27.5911 38.2614C27.6815 38.3884 27.6815 38.3884 27.6815 38.5318C27.6348 38.5318 27.5881 38.5318 27.54 38.5318C27.54 38.4845 27.54 38.4371 27.54 38.3884C27.5006 38.3691 27.4613 38.3499 27.4207 38.3301C27.2432 38.2377 27.0737 38.1352 26.9035 38.0298C26.8907 38.0749 26.8778 38.12 26.8646 38.1665C26.7769 38.4692 26.6869 38.7646 26.5676 39.0562C26.4613 39.3734 26.4613 39.3734 26.5499 39.6793C26.6607 39.8756 26.7791 40.0654 26.9035 40.2531C26.6523 40.1301 26.4268 39.9822 26.1963 39.8228C26.1834 39.8687 26.1706 39.9146 26.1573 39.962C26.0739 40.253 25.9932 40.5324 25.8603 40.8044C25.7529 41.0932 25.7616 41.2481 25.8427 41.544C25.9787 41.7511 25.9787 41.7511 26.1255 41.9026C26.1022 41.95 26.0789 41.9973 26.0548 42.0461C25.9148 41.9277 25.7748 41.8094 25.6305 41.6875C25.4011 41.9542 25.2947 42.2579 25.1705 42.5834C25.1361 42.672 25.1361 42.672 25.1011 42.7624C25.0528 42.8871 25.0047 43.0119 24.9568 43.1368C24.8839 43.3271 24.8103 43.5171 24.7366 43.7071C24.6897 43.8286 24.6428 43.9501 24.5959 44.0716C24.5741 44.1281 24.5522 44.1846 24.5298 44.2428C24.4173 44.5363 24.3112 44.8302 24.216 45.13C24.1693 45.13 24.1226 45.13 24.0746 45.13C24.6182 46.5347 25.1564 47.8788 26.057 49.092C26.1963 49.2898 26.1963 49.2898 26.267 49.505C26.2099 49.5352 26.2099 49.5352 26.1517 49.566C25.0549 50.1511 24.1304 50.792 23.2259 51.6566C23.1651 51.7119 23.1042 51.7673 23.0416 51.8244C21.0846 53.6829 20.0289 56.5492 19.9341 59.2239C19.9165 59.7853 19.9073 60.3468 19.9018 60.9085C16.9185 59.974 14.0087 57.9129 11.6979 55.8163C11.6325 55.7572 11.5671 55.698 11.4998 55.637C11.3881 55.5353 11.2767 55.4333 11.1658 55.3308C11.0673 55.2409 10.9685 55.1515 10.868 55.064C10.4802 54.7254 10.1148 54.3676 9.75294 54.0009C9.69478 53.9428 9.63661 53.8847 9.57669 53.8248C9.5218 53.7693 9.46692 53.7138 9.41037 53.6566C9.36064 53.6065 9.31091 53.5563 9.25967 53.5047C9.15179 53.3779 9.15179 53.3779 9.15179 53.2344C9.10511 53.2344 9.05843 53.2344 9.01034 53.2344C8.91558 53.1417 8.91558 53.1417 8.80259 53.0058C8.75837 52.9529 8.71416 52.9 8.6686 52.8456C8.618 52.7845 8.56741 52.7235 8.51527 52.6607C8.45811 52.5937 8.40095 52.5268 8.34205 52.4578C6.94733 50.8201 5.72162 49.0357 4.69618 47.1382C4.6432 47.0425 4.59017 46.9469 4.53705 46.8513C4.47215 46.7318 4.40733 46.6123 4.34256 46.4927C4.32031 46.4525 4.29807 46.4122 4.27515 46.3708C3.82692 45.5573 3.46786 44.7215 3.13391 43.8537C3.07257 43.695 3.07257 43.695 2.99063 43.5495C2.92808 43.4088 2.92808 43.4088 2.92808 43.1219C2.8814 43.0982 2.83472 43.0745 2.78663 43.0502C2.80997 43.0028 2.83331 42.9555 2.85735 42.9067C2.81068 42.883 2.764 42.8594 2.71591 42.835C2.67053 42.6509 2.64363 42.4665 2.61424 42.2792C2.60111 42.2259 2.58798 42.1727 2.57446 42.1178C2.52778 42.0941 2.4811 42.0705 2.43301 42.0461C2.37278 41.8741 2.37278 41.8741 2.31808 41.6606C2.29967 41.5905 2.28125 41.5204 2.26228 41.4482C2.22084 41.2572 2.22084 41.2572 2.22084 41.042C2.17416 41.0183 2.12748 40.9947 2.07939 40.9703C2.03463 40.8322 2.03463 40.8322 1.99983 40.661C1.98205 40.5771 1.98205 40.5771 1.96391 40.4915C1.93794 40.3248 1.93794 40.3248 1.93794 40.0379C1.89126 40.0142 1.84459 39.9906 1.79649 39.9662C1.81983 39.8952 1.84317 39.8242 1.86722 39.751C1.82054 39.7274 1.77386 39.7037 1.72577 39.6793C1.68233 39.5008 1.64637 39.3266 1.61526 39.1459C1.56122 38.793 1.56122 38.793 1.44287 38.4601C1.47382 38.3077 1.47382 38.3077 1.5136 38.1732C1.46692 38.1732 1.42024 38.1732 1.37215 38.1732C1.32793 37.8128 1.29222 37.4613 1.30143 37.0974C1.25475 37.0737 1.20807 37.0501 1.15998 37.0257C1.15998 36.718 1.15998 36.4103 1.15998 36.0933C1.1133 36.0933 1.06662 36.0933 1.01853 36.0933C1.01999 36.0193 1.02145 35.9454 1.02295 35.8692C1.02585 35.5982 1.02585 35.5982 0.978747 35.3627C0.948896 35.1681 0.955859 35.0577 1.01853 34.8741C0.971852 34.8504 0.925174 34.8267 0.877082 34.8023C0.877082 34.6367 0.877082 34.471 0.877082 34.3003C0.853743 34.3003 0.830404 34.3003 0.806358 34.3003C0.804719 33.6413 0.803462 32.9824 0.802693 32.3234C0.802324 32.0174 0.801823 31.7114 0.801022 31.4054C0.800254 31.1101 0.799831 30.8148 0.799647 30.5195C0.799517 30.4069 0.799261 30.2942 0.798879 30.1815C0.798366 30.0238 0.798296 29.866 0.798329 29.7082C0.798093 29.5734 0.798092 29.5734 0.797852 29.436C0.804826 29.2492 0.822065 29.0984 0.877082 28.9213C0.923759 28.9213 0.970437 28.9213 1.01853 28.9213C1.00686 28.8843 0.995191 28.8473 0.983168 28.8092C0.920574 28.4998 0.920017 28.2169 1.01853 27.9172C1.01853 27.8329 1.01853 27.7486 1.01853 27.6617C1.01853 27.4152 1.01853 27.4152 1.08925 27.2717C1.08925 27.1992 1.08925 27.1268 1.08925 27.0521C1.08925 26.8414 1.08925 26.8414 1.15998 26.7697C1.15852 26.709 1.15706 26.6484 1.15556 26.5859C1.16038 26.3169 1.17569 25.8931 1.37215 25.6939C1.38867 25.5613 1.40136 25.4282 1.41193 25.2949C1.41786 25.2224 1.42378 25.1498 1.42989 25.075C1.43417 25.0189 1.43846 24.9628 1.44287 24.905C1.48955 24.905 1.53623 24.905 1.58432 24.905C1.58697 24.8572 1.58961 24.8094 1.59233 24.7601C1.6276 24.2587 1.72607 23.8076 1.86722 23.3271C1.90734 23.1793 1.94713 23.0314 1.98656 22.8834C2.01751 22.7683 2.04845 22.6533 2.07939 22.5382C2.12607 22.5382 2.17275 22.5382 2.22084 22.5382C2.22959 22.4539 2.23834 22.3696 2.24736 22.2827C2.28197 21.9973 2.34853 21.7365 2.43301 21.4624C2.47969 21.4624 2.52637 21.4624 2.57446 21.4624C2.58066 21.394 2.58686 21.3256 2.59324 21.2551C2.64322 20.9025 2.77642 20.5884 2.9104 20.2611C2.9362 20.197 2.96201 20.133 2.9886 20.067C3.17031 19.6185 3.35941 19.175 3.56459 18.737C3.61646 18.6254 3.6683 18.5137 3.72013 18.402C4.18746 17.3969 4.18746 17.3969 4.41328 16.944C4.45996 16.944 4.50664 16.944 4.55473 16.944C4.56313 16.8912 4.57154 16.8383 4.5802 16.7839C4.62494 16.5877 4.68461 16.4524 4.78375 16.2792C4.81554 16.2233 4.84732 16.1674 4.88007 16.1098C4.91274 16.0538 4.94541 15.9977 4.97907 15.94C5.00892 15.8882 5.03877 15.8365 5.06952 15.7832C5.50046 15.0437 5.96192 14.3361 6.46428 13.6449C6.55858 13.5119 6.65288 13.379 6.74717 13.246C7.01458 12.874 7.29015 12.5087 7.56824 12.145C7.67264 12.0083 7.77661 11.8713 7.87986 11.7337C7.9218 11.678 7.96374 11.6224 8.00695 11.565C8.04241 11.5177 8.07787 11.4704 8.11441 11.4216C8.26132 11.243 8.42322 11.0834 8.586 10.9195C8.69111 10.802 8.79568 10.6839 8.89984 10.5654C9.30436 10.1124 9.72953 9.68001 10.1552 9.24757C10.1886 9.21347 10.2221 9.17937 10.2566 9.14423C10.6536 8.73984 11.0552 8.34668 11.4857 7.97902C11.5813 7.89734 11.5813 7.89734 11.6788 7.81401C12.812 6.87309 13.9824 5.95596 15.2341 5.18194C15.3072 5.1358 15.3803 5.08967 15.4556 5.04214C15.6875 4.89622 15.9202 4.75181 16.1535 4.60818C16.256 4.54494 16.256 4.54494 16.3607 4.48043C16.9366 4.13221 17.5307 3.82856 18.1337 3.53238C18.1922 3.50361 18.2507 3.47485 18.3109 3.44521C18.4933 3.35578 18.6759 3.2669 18.8587 3.17826C18.9446 3.13632 18.9446 3.13632 19.0323 3.09354C19.1132 3.05463 19.1132 3.05463 19.1957 3.01493C19.2433 2.99191 19.2909 2.9689 19.34 2.94518C19.4775 2.88689 19.4775 2.88689 19.6233 2.852C19.7818 2.81744 19.7818 2.81744 19.9726 2.67173C20.0846 2.62175 20.1979 2.57451 20.3118 2.52913C20.3791 2.50228 20.4464 2.47543 20.5158 2.44777C20.5874 2.41961 20.6591 2.39145 20.7328 2.36244C20.806 2.33359 20.8792 2.30474 20.9546 2.27501C21.7227 1.97452 22.4867 1.68577 23.2966 1.52421C23.391 1.50082 23.4853 1.47705 23.5795 1.45249C23.5795 1.42882 23.5795 1.40516 23.5795 1.38077C23.6442 1.37125 23.7089 1.36173 23.7756 1.35192C23.8597 1.33925 23.9437 1.32658 24.0304 1.31353C24.114 1.30105 24.1977 1.28857 24.284 1.27571C24.4923 1.24919 24.4923 1.24919 24.6403 1.16561C24.6403 1.14194 24.6403 1.11828 24.6403 1.09389C24.6841 1.08595 24.7279 1.07801 24.7731 1.06983C24.9749 1.03317 25.1767 0.996292 25.3785 0.959416C25.4818 0.940695 25.4818 0.940695 25.5872 0.921595C25.9077 0.862902 26.2261 0.80153 26.5433 0.726326C26.8597 0.653221 27.1452 0.653138 27.4693 0.663571C27.4693 0.639903 27.4693 0.616235 27.4693 0.591851C28.8564 0.436176 28.8564 0.436176 29.5174 0.453085C29.7489 0.448053 29.9654 0.416092 30.1938 0.378091C30.6854 0.304462 31.1633 0.280266 31.6597 0.282558ZM26.8328 0.735291C26.8328 0.758958 26.8328 0.782626 26.8328 0.807011C26.9495 0.807011 27.0662 0.807011 27.1864 0.807011C27.1864 0.783343 27.1864 0.759676 27.1864 0.735291C27.0697 0.735291 26.953 0.735291 26.8328 0.735291ZM26.3377 0.807011C26.3377 0.830679 26.3377 0.854346 26.3377 0.878731C26.4778 0.878731 26.6178 0.878731 26.7621 0.878731C26.7621 0.855063 26.7621 0.831396 26.7621 0.807011C26.622 0.807011 26.482 0.807011 26.3377 0.807011ZM24.994 1.09389C25.2769 1.16561 25.2769 1.16561 25.2769 1.16561L24.994 1.09389ZM4.90835 16.1551C4.97907 16.2986 4.97907 16.2986 4.97907 16.2986L4.90835 16.1551ZM3.14025 19.8128C3.21097 19.9563 3.21097 19.9563 3.21097 19.9563L3.14025 19.8128ZM2.85735 20.53C2.92808 20.6735 2.92808 20.6735 2.92808 20.6735L2.85735 20.53ZM2.07939 22.8251C2.15011 22.9685 2.15011 22.9685 2.15011 22.9685L2.07939 22.8251ZM1.86722 23.4706C1.93794 23.7574 1.93794 23.7574 1.93794 23.7574L1.86722 23.4706ZM1.79649 23.8292C1.86722 24.0443 1.86722 24.0443 1.86722 24.0443L1.79649 23.8292ZM1.72577 24.116C1.79649 24.2595 1.79649 24.2595 1.79649 24.2595L1.72577 24.116ZM1.44287 25.3353C1.5136 25.5504 1.5136 25.5505 1.5136 25.5505L1.44287 25.3353ZM1.2307 26.3394C1.2307 26.4577 1.2307 26.576 1.2307 26.698C1.25404 26.698 1.27738 26.698 1.30143 26.698C1.30143 26.5796 1.30143 26.4613 1.30143 26.3394C1.27809 26.3394 1.25475 26.3394 1.2307 26.3394Z" fill="#099EC4"/>
<path d="M20.3969 19.0237C22.8288 19.7412 24.9854 21.8363 26.7121 23.6393C26.9337 23.8558 27.1177 23.8419 27.4185 23.8383C27.7843 23.8206 28.1457 23.7688 28.5083 23.7192C28.5922 23.708 28.6761 23.6969 28.7625 23.6854C29.0284 23.65 29.2943 23.614 29.5601 23.578C29.7412 23.5537 29.9223 23.5296 30.1034 23.5054C30.5456 23.4464 30.9877 23.3868 31.4299 23.327C31.4299 23.0996 31.2884 22.9765 31.1558 22.798C30.7177 22.2072 30.7177 22.2072 30.7298 21.9629C30.8168 21.7684 30.9348 21.6834 31.1028 21.5564C31.1587 21.5132 31.2147 21.47 31.2724 21.4255C31.4299 21.3188 31.4299 21.3188 31.642 21.2471C32.3535 21.5516 32.9687 22.1474 33.3991 22.7868C33.4765 22.9077 33.4765 22.9077 33.6223 22.9683C34.0551 23.0005 34.4835 22.9508 34.9119 22.8924C35.0011 22.8807 35.0011 22.8807 35.0922 22.8688C35.2167 22.8524 35.3413 22.8358 35.4659 22.8191C35.656 22.7935 35.8463 22.7684 36.0366 22.7435C36.1582 22.7274 36.2799 22.7113 36.4015 22.6952C36.458 22.6877 36.5146 22.6802 36.5728 22.6725C36.841 22.6363 37.106 22.5964 37.3707 22.538C37.328 22.4877 37.2853 22.4374 37.2414 22.3856C36.4427 21.4241 36.4427 21.4241 36.4573 20.9994C36.5466 20.7472 36.6804 20.6582 36.8933 20.503C36.9607 20.4521 37.0282 20.4013 37.0977 20.3489C37.2999 20.243 37.2999 20.243 37.4848 20.2503C37.6616 20.3178 37.7843 20.3931 37.932 20.5119C37.9809 20.5512 38.0298 20.5905 38.0801 20.631C38.1261 20.6686 38.172 20.7063 38.2194 20.745C38.2879 20.7968 38.3565 20.8486 38.4271 20.9019C38.6967 21.1312 38.9045 21.4185 39.1214 21.6976C39.2 21.7941 39.2 21.7941 39.2802 21.8925C39.3219 21.9574 39.3635 22.0222 39.4065 22.0891C39.7836 22.3579 40.1624 22.235 40.6019 22.1707C40.6995 22.1579 40.7971 22.1452 40.8948 22.1327C41.1533 22.099 41.4115 22.063 41.6696 22.0265C41.9241 21.9909 42.179 21.9576 42.4338 21.9241C43.1823 21.8249 43.9301 21.7206 44.6776 21.6136C44.8211 21.5931 44.9645 21.5727 45.108 21.5523C45.2846 21.5271 45.4612 21.5017 45.6377 21.4759C45.7164 21.4646 45.7952 21.4534 45.8763 21.4418C45.9447 21.4318 46.0131 21.4219 46.0836 21.4116C46.4802 21.3694 46.721 21.3627 47.0521 21.6001C47.1139 21.6441 47.1758 21.6881 47.2394 21.7334C47.3027 21.78 47.366 21.8266 47.4312 21.8746C47.4955 21.9201 47.5599 21.9656 47.6262 22.0125C47.9153 22.2213 48.1042 22.3583 48.2622 22.6815C48.3322 22.7051 48.4022 22.7288 48.4743 22.7532C47.8373 22.9959 47.2003 23.2384 46.5632 23.4809C46.2672 23.5936 45.9712 23.7063 45.6752 23.819C43.4151 24.68 43.4151 24.68 42.4479 25.0393C42.385 25.0628 42.3221 25.0863 42.2574 25.1105C41.8431 25.2634 41.8431 25.2634 41.6848 25.2634C41.7899 25.4764 41.7899 25.4764 41.897 25.6937C41.6848 25.6937 41.6848 25.6937 41.5655 25.5861C41.5349 25.5506 41.5042 25.5151 41.4727 25.4786C40.9598 25.6091 40.4738 25.7699 39.9875 25.9806C40.0108 26.1226 40.0341 26.2646 40.0582 26.4109C40.0115 26.4109 39.9648 26.4109 39.9167 26.4109C39.9167 26.3636 39.9167 26.3162 39.9167 26.2675C39.4908 26.1685 39.2351 26.2348 38.8382 26.4064C38.3118 26.6261 38.3118 26.6261 38.0779 26.6261C38.126 26.706 38.126 26.706 38.1752 26.7874C38.2679 26.9466 38.3525 27.1051 38.4315 27.2716C38.2718 27.1964 38.1526 27.132 38.0249 27.0071C37.7843 26.8648 37.5615 26.9301 37.2999 26.9847C37.0862 27.0492 36.8798 27.1288 36.6723 27.2113C36.615 27.2335 36.5577 27.2557 36.4987 27.2786C36.3176 27.3488 36.1369 27.42 35.9562 27.4912C35.8327 27.5393 35.7092 27.5874 35.5857 27.6353C35.2846 27.7525 34.9838 27.8704 34.6832 27.9888C34.7881 28.2693 34.9064 28.4728 35.0942 28.706C35.1414 28.7651 35.1885 28.8243 35.2371 28.8853C35.3888 29.0674 35.3888 29.0674 35.5609 29.2352C35.7719 29.4518 35.9562 29.6817 36.1418 29.9207C36.1788 29.9679 36.2158 30.0151 36.2539 30.0638C36.4322 30.2917 36.6095 30.5204 36.7861 30.7497C36.8483 30.8305 36.9106 30.9114 36.9728 30.9922C37.0041 31.0327 37.0353 31.0731 37.0675 31.1149C37.3694 31.5048 37.681 31.8866 37.9928 32.2685C38.2902 32.6333 38.5807 33.0028 38.8677 33.3761C39.061 33.6271 39.2573 33.8751 39.457 34.121C39.7315 34.459 39.9984 34.8023 40.2643 35.1472C40.5142 35.4707 40.7699 35.789 41.0276 36.1062C41.2068 36.3298 41.3819 36.5564 41.5566 36.7836C41.8527 37.1683 42.1559 37.5464 42.4628 37.9222C42.8367 38.3801 43.2027 38.8434 43.5634 39.312C43.8756 39.7174 44.1931 40.1183 44.5135 40.517C44.9147 41.0162 45.3131 41.5171 45.704 42.0246C46.0324 42.45 46.3691 42.8684 46.7057 43.2872C46.9674 43.6128 47.226 43.9409 47.4842 44.2694C47.5726 44.3815 47.661 44.4935 47.7494 44.6056C48.2544 45.2458 48.2544 45.2457 48.3633 45.3838C48.4376 45.4779 48.5118 45.572 48.586 45.6661C48.7396 45.8607 48.8932 46.0554 49.0465 46.2504C49.2932 46.5641 49.5418 46.8761 49.7917 47.1871C50.1546 47.6387 50.5138 48.0927 50.8673 48.5518C51.153 48.922 51.4455 49.2863 51.7386 49.6504C52.0248 50.0066 52.3057 50.3666 52.5846 50.7287C52.8292 51.0456 53.0799 51.3571 53.3322 51.6678C53.5192 51.9009 53.7022 52.137 53.8847 52.3738C54.1648 52.7369 54.4491 53.096 54.7378 53.4521C55.2698 54.1082 55.7975 54.7674 56.3131 55.437C56.5607 55.7578 56.8133 56.0744 57.0673 56.3901C57.3861 56.7862 57.7002 57.1856 58.0105 57.5886C58.2959 57.9583 58.5879 58.3223 58.8808 58.6859C59.1768 59.0541 59.4672 59.4263 59.7538 59.802C59.8984 59.9905 60.042 60.1717 60.2145 60.3347C60.1912 60.382 60.1678 60.4294 60.1438 60.4781C60.0805 60.4227 60.0173 60.3672 59.9521 60.3101C59.5208 59.9329 59.0883 59.5591 58.6415 59.2009C58.3862 58.9952 58.1335 58.7864 57.8806 58.5776C57.575 58.3254 57.2693 58.0736 56.9612 57.8245C56.6031 57.535 56.2481 57.2417 55.8928 56.9485C55.6295 56.7314 55.3656 56.515 55.1003 56.3004C54.8017 56.0589 54.5059 55.8139 54.2104 55.5684C53.6005 55.0617 52.9904 54.5554 52.3686 54.0637C51.9374 53.7227 51.5151 53.3714 51.0938 53.018C50.7799 52.7549 50.4642 52.4947 50.1455 52.2376C49.9027 52.0408 49.6614 51.842 49.4203 51.6431C49.3722 51.6035 49.3242 51.5639 49.2748 51.5231C49.0757 51.359 48.8768 51.1948 48.6778 51.0306C48.1797 50.6196 47.6813 50.209 47.1792 49.8031C46.8761 49.5565 46.575 49.3074 46.2736 49.0587C46.0179 48.8478 45.7617 48.6376 45.5039 48.4292C44.9555 47.9856 44.4127 47.535 43.8686 47.086C43.2028 46.5362 43.2028 46.5362 42.5335 45.9907C41.9851 45.5471 41.4423 45.0965 40.8982 44.6475C40.4 44.2365 39.9017 43.8259 39.3996 43.42C39.0965 43.1734 38.7954 42.9243 38.494 42.6756C38.2382 42.4647 37.982 42.2545 37.7243 42.0461C37.1759 41.6025 36.633 41.1519 36.0889 40.7029C35.5908 40.2919 35.0925 39.8813 34.5903 39.4754C34.2872 39.2288 33.9861 38.9797 33.6847 38.731C33.429 38.5201 33.1728 38.3099 32.9151 38.1015C32.3667 37.6579 31.8238 37.2073 31.2797 36.7583C30.5313 36.1403 30.5313 36.1403 29.7783 35.528C29.6249 35.4035 29.4722 35.2783 29.3197 35.1525C29.2719 35.1133 29.224 35.074 29.1747 35.0335C29.0796 34.9554 28.9847 34.8771 28.89 34.7985C28.8465 34.7629 28.8029 34.7273 28.7581 34.6906C28.7193 34.6585 28.6804 34.6265 28.6404 34.5935C28.5209 34.501 28.5209 34.501 28.318 34.4437C28.3072 34.484 28.2965 34.5243 28.2854 34.5658C28.1327 35.111 27.9265 35.6286 27.7124 36.1516C27.6431 36.3224 27.5737 36.4932 27.5044 36.664C27.4739 36.7387 27.4434 36.8134 27.412 36.8903C27.3842 36.9586 27.3565 37.027 27.3279 37.0974C27.3009 37.1621 27.2739 37.2268 27.2461 37.2934C27.1661 37.5114 27.1766 37.5952 27.2571 37.8146C27.363 37.9687 27.4743 38.1157 27.5911 38.2614C27.6815 38.3884 27.6815 38.3884 27.6815 38.5318C27.6348 38.5318 27.5881 38.5318 27.54 38.5318C27.54 38.4845 27.54 38.4371 27.54 38.3884C27.5006 38.3691 27.4613 38.3499 27.4207 38.3301C27.2432 38.2377 27.0737 38.1352 26.9035 38.0298C26.8907 38.0749 26.8778 38.12 26.8646 38.1665C26.7769 38.4692 26.6869 38.7646 26.5676 39.0562C26.4613 39.3734 26.4613 39.3734 26.5499 39.6793C26.6607 39.8756 26.7791 40.0654 26.9035 40.2531C26.6523 40.1301 26.4268 39.9822 26.1963 39.8228C26.1834 39.8687 26.1706 39.9146 26.1573 39.962C26.0739 40.253 25.9932 40.5324 25.8603 40.8044C25.7529 41.0932 25.7616 41.2481 25.8427 41.544C25.9787 41.7511 25.9787 41.7511 26.1255 41.9026C26.1022 41.95 26.0789 41.9973 26.0548 42.0461C25.9148 41.9277 25.7748 41.8094 25.6305 41.6875C25.4011 41.9542 25.2947 42.2579 25.1705 42.5834C25.1476 42.6425 25.1247 42.7016 25.1011 42.7624C25.0528 42.8871 25.0047 43.0119 24.9568 43.1368C24.8839 43.3271 24.8103 43.5171 24.7366 43.7071C24.6897 43.8286 24.6428 43.9501 24.5959 44.0716C24.5741 44.1281 24.5522 44.1846 24.5298 44.2428C24.4173 44.5363 24.3112 44.8302 24.216 45.13C24.1693 45.13 24.1226 45.13 24.0746 45.13C24.0674 45.1774 24.0602 45.2245 24.0529 45.2733C23.9903 45.5478 23.8894 45.8022 23.7853 46.0625C23.7638 46.117 23.7422 46.1716 23.72 46.2277C23.6746 46.3426 23.629 46.4575 23.5832 46.5722C23.5134 46.7476 23.444 46.9231 23.3746 47.0987C23.3303 47.2105 23.286 47.3223 23.2416 47.4342C23.2209 47.4865 23.2002 47.5388 23.1789 47.5926C23.0848 47.8283 22.9896 48.0607 22.8723 48.2855C22.6335 48.185 22.5246 48.0789 22.3835 47.8608C22.3471 47.805 22.3107 47.7491 22.2732 47.6916C22.236 47.6332 22.1989 47.5748 22.1606 47.5146C22.1232 47.4572 22.0857 47.3999 22.0472 47.3409C21.9425 47.1788 21.8388 47.0174 21.7407 46.8511C21.7026 46.7884 21.6645 46.7256 21.6253 46.6609C21.508 46.37 21.5301 46.1575 21.5801 45.8569C21.5921 45.7746 21.5921 45.7746 21.6044 45.6906C21.6311 45.5096 21.6598 45.329 21.6885 45.1483C21.7076 45.0215 21.7266 44.8946 21.7454 44.7677C21.7955 44.4333 21.8471 44.0992 21.8991 43.7652C21.9614 43.363 22.0219 42.9605 22.0826 42.5581C22.1301 42.244 22.1778 41.9301 22.2263 41.6162C22.3111 41.0668 22.3932 40.517 22.4653 39.9657C22.4773 39.874 22.4894 39.7824 22.5019 39.6879C22.5331 39.4618 22.5331 39.4618 22.4479 39.2488C22.3721 39.2187 22.3721 39.2187 22.2949 39.188C22.0325 39.0799 21.8478 38.9086 21.6434 38.7154C21.6032 38.6774 21.563 38.6394 21.5216 38.6002C21.1845 38.2717 20.8387 37.9092 20.6798 37.4558C20.7485 37.1415 20.9355 36.9475 21.1484 36.7162C21.2062 36.6529 21.264 36.5895 21.3235 36.5243C21.3678 36.4767 21.4121 36.4291 21.4578 36.38C21.5878 36.442 21.7174 36.5049 21.8468 36.5683C21.919 36.6032 21.9912 36.6382 22.0656 36.6742C22.2613 36.7848 22.4271 36.8972 22.6044 37.034C22.6548 37.0727 22.7051 37.1114 22.757 37.1513C22.795 37.1808 22.8331 37.2103 22.8723 37.2407C22.945 36.7686 23.0167 36.2964 23.0877 35.8241C23.1119 35.6635 23.1364 35.503 23.1611 35.3424C23.1967 35.1115 23.2314 34.8804 23.2659 34.6492C23.2771 34.5777 23.2883 34.5062 23.2999 34.4325C23.3509 34.0855 23.3923 33.7837 23.2966 33.4395C23.1913 33.3074 23.1913 33.3074 23.0491 33.2064C22.4885 32.7422 22.0648 32.2674 21.8114 31.5748C22.0214 31.3144 22.2315 31.0541 22.4479 30.7858C22.8555 30.8547 22.9984 30.9184 23.3231 31.1489C23.3981 31.2015 23.473 31.2541 23.5502 31.3083C23.6065 31.3489 23.6629 31.3895 23.7209 31.4313C23.8058 30.866 23.8901 30.3005 23.9736 29.7349C24.0124 29.4723 24.0514 29.2097 24.0908 28.9472C24.1289 28.6938 24.1665 28.4404 24.2036 28.1869C24.2179 28.0902 24.2324 27.9936 24.2471 27.8969C24.2676 27.7616 24.2873 27.6261 24.3071 27.4906C24.3185 27.4135 24.33 27.3364 24.3418 27.257C24.3634 26.9799 24.329 26.8329 24.1762 26.6037C24.039 26.4502 23.906 26.321 23.7519 26.1868C23.174 25.6836 22.6558 25.136 22.1819 24.5316C22.0186 24.3247 21.849 24.1243 21.6788 23.9231C20.9833 23.0756 20.4045 22.1519 19.9018 21.1753C19.8797 21.1323 19.8575 21.0893 19.8346 21.0449C19.3609 20.1106 19.3609 20.1106 19.4068 19.5975C19.5919 19.0813 19.8733 18.9443 20.3969 19.0237Z" fill="white"/>
<path d="M31.3675 0.282349C31.5309 0.282349 31.6942 0.282349 31.8626 0.282349C31.8626 0.306016 31.8626 0.329684 31.8626 0.354069C31.6992 0.354069 31.5358 0.354069 31.3675 0.354069C31.3675 0.330401 31.3675 0.306733 31.3675 0.282349Z" fill="#132950"/>
<path d="M3.71441 24.5237C3.78514 24.8106 3.78514 24.8106 3.78514 24.8106L3.71441 24.5237Z" fill="#132950"/>
<path d="M25.4974 1.35815C25.7803 1.42987 25.7803 1.42987 25.7803 1.42987L25.4974 1.35815Z" fill="#132950"/>
<path d="M36.3182 0.282349C36.6011 0.354069 36.6011 0.354069 36.6011 0.354069L36.3182 0.282349Z" fill="#132950"/>
<path d="M21.8198 2.72083C21.9612 2.79255 21.9612 2.79255 21.9612 2.79255L21.8198 2.72083Z" fill="#132950"/>
<path d="M26.6997 1.07127C26.8412 1.14299 26.8412 1.14299 26.8412 1.14299L26.6997 1.07127Z" fill="#132950"/>
<path d="M37.1669 0.354068C37.3083 0.425788 37.3083 0.425788 37.3083 0.425788L37.1669 0.354068Z" fill="#132950"/>
</g>
</g>
<g id="Vector_2">
<path d="M122.086 23.2136C127.8 23.2136 133.514 23.2136 139.401 23.2136C139.401 24.786 139.401 26.3584 139.401 27.9785C137.435 27.9785 135.47 27.9785 133.445 27.9785C133.445 32.0375 133.445 36.0965 133.445 40.2785C131.662 40.2785 129.879 40.2785 128.041 40.2785C128.005 36.8411 127.969 33.4038 127.931 29.8623C127.13 29.8623 126.33 29.8623 125.505 29.8623C125.272 30.0962 125.374 30.6183 125.372 30.9418C125.371 31.0435 125.37 31.1451 125.369 31.2498C125.365 31.5873 125.362 31.9249 125.36 32.2625C125.357 32.4958 125.355 32.7292 125.353 32.9626C125.347 33.5781 125.341 34.1937 125.336 34.8093C125.33 35.4369 125.324 36.0645 125.318 36.6921C125.306 37.9245 125.295 39.1569 125.284 40.3893C124.786 40.3975 124.287 40.4036 123.789 40.4076C123.619 40.4092 123.449 40.4115 123.28 40.4144C123.036 40.4184 122.792 40.4203 122.549 40.4218C122.435 40.4244 122.435 40.4244 122.318 40.427C122.104 40.4271 122.104 40.4271 121.755 40.3893C121.465 39.9522 121.505 39.5801 121.51 39.0731C121.51 38.9726 121.51 38.872 121.509 38.7684C121.51 38.4356 121.511 38.1029 121.513 37.7701C121.514 37.5395 121.514 37.309 121.514 37.0784C121.515 36.4712 121.517 35.864 121.519 35.2569C121.522 34.5285 121.523 33.8002 121.524 33.0718C121.527 31.965 121.531 30.8583 121.535 29.7515C120.006 29.7515 118.478 29.7515 116.903 29.7515C116.903 28.6179 116.903 27.4843 116.903 26.3163C118.577 26.3163 120.251 26.3163 121.976 26.3163C122.012 25.2924 122.049 24.2685 122.086 23.2136Z" fill="white"/>
<path d="M191.979 27.6114C192.061 27.6116 192.144 27.6118 192.229 27.612C194.28 27.6204 196.469 27.7485 198.072 29.1974C198.147 29.2622 198.221 29.3271 198.298 29.3939C199.479 30.4886 199.938 31.9388 200.057 33.519C200.057 34.0309 200.057 34.5429 200.057 35.0703C196.454 35.0703 192.851 35.0703 189.139 35.0703C189.53 36.3042 189.53 36.3042 190.443 36.9494C191.461 37.376 192.856 37.3199 193.883 36.9524C194.398 36.6958 194.622 36.3512 194.874 35.846C196.548 35.846 198.222 35.846 199.947 35.846C199.947 37.2167 199.685 38.0707 198.734 39.0595C197.029 40.5823 194.652 40.7428 192.481 40.7483C192.231 40.7494 191.98 40.7528 191.73 40.7563C189.512 40.7725 187.32 40.4076 185.618 38.8673C184.356 37.5516 184.022 35.9123 184.031 34.1492C184.032 34.027 184.033 33.9048 184.033 33.7789C184.058 32.0507 184.447 30.6243 185.657 29.3441C187.385 27.7761 189.759 27.6001 191.979 27.6114ZM189.621 31.5729C189.353 31.9091 189.342 32.0574 189.249 32.5217C191.105 32.5217 192.961 32.5217 194.874 32.5217C194.559 31.6792 194.416 31.3264 193.647 30.9738C192.365 30.5166 190.604 30.501 189.621 31.5729Z" fill="white"/>
<path d="M161.209 27.6183C161.285 27.6182 161.36 27.6181 161.437 27.618C166.096 27.6226 166.096 27.6226 167.634 29.0866C168.442 29.9217 168.581 30.8659 168.579 31.988C168.581 32.114 168.582 32.2399 168.584 32.3697C168.588 32.769 168.59 33.1682 168.592 33.5675C168.595 33.9695 168.599 34.3716 168.603 34.7736C168.605 35.0231 168.607 35.2725 168.608 35.522C168.609 35.6902 168.609 35.6902 168.61 35.8618C168.611 35.9607 168.611 36.0595 168.612 36.1614C168.611 36.4057 168.611 36.4057 168.736 36.6217C168.991 36.6583 169.246 36.6949 169.508 36.7325C169.508 37.9393 169.508 39.146 169.508 40.3893C168.847 40.3995 168.186 40.4083 167.525 40.4136C167.3 40.4159 167.075 40.4189 166.85 40.4227C166.527 40.4281 166.203 40.4306 165.879 40.4326C165.779 40.4349 165.679 40.4371 165.577 40.4395C164.918 40.4397 164.531 40.3372 163.994 39.946C163.765 39.5822 163.663 39.3791 163.663 38.9487C163.591 39.0063 163.519 39.0639 163.444 39.1232C162.046 40.197 160.63 40.6569 158.88 40.6455C158.779 40.6449 158.677 40.6443 158.573 40.6436C157.253 40.62 156.08 40.3505 155.082 39.4292C154.063 38.3087 153.991 37.1026 154.048 35.6523C154.108 34.924 154.431 34.2489 154.951 33.7406C156.378 32.534 158.697 32.5758 160.451 32.3901C160.848 32.3472 161.245 32.304 161.642 32.2602C161.887 32.2332 162.132 32.2068 162.378 32.181C162.487 32.1692 162.597 32.1573 162.709 32.145C162.806 32.1348 162.903 32.1246 163.002 32.1141C163.222 32.1007 163.222 32.1007 163.332 31.9677C163.34 31.8178 163.342 31.6675 163.339 31.5175C163.337 31.3735 163.335 31.2295 163.332 31.0812C162.201 30.775 160.769 30.6312 159.653 31.0738C159.354 31.2696 159.252 31.5256 159.142 31.8568C159.069 31.8568 158.996 31.8568 158.921 31.8568C158.921 31.93 158.921 32.0031 158.921 32.0785C157.879 32.0865 156.84 32.0622 155.799 32.0231C155.651 32.0177 155.504 32.0124 155.356 32.007C155 31.9941 154.645 31.981 154.289 31.9677C154.286 31.7935 154.284 31.6194 154.282 31.4452C154.28 31.2997 154.28 31.2997 154.278 31.1513C154.313 30.2459 154.745 29.4809 155.392 28.865C157.043 27.7112 159.272 27.6203 161.209 27.6183ZM161.657 34.9403C161.418 34.9938 161.179 35.0458 160.941 35.0979C160.788 35.132 160.636 35.1663 160.483 35.2007C160.276 35.2468 160.276 35.2468 160.064 35.2939C159.671 35.4091 159.325 35.551 159.031 35.846C158.983 36.1845 158.979 36.5054 159.031 36.8433C159.272 37.1487 159.458 37.3349 159.803 37.5082C160.821 37.5976 161.714 37.5903 162.56 36.9542C163.001 36.5399 163.417 36.0743 163.464 35.4495C163.462 35.3518 163.459 35.2541 163.457 35.1535C163.455 35.0546 163.453 34.9558 163.45 34.8539C163.448 34.7791 163.445 34.7042 163.443 34.6271C162.837 34.6271 162.246 34.8074 161.657 34.9403Z" fill="white"/>
<path d="M168.516 27.9785C170.299 27.9785 172.082 27.9785 173.92 27.9785C174.416 29.1008 174.416 29.1008 174.613 29.6737C174.658 29.8013 174.702 29.9288 174.747 30.0602C174.816 30.2618 174.816 30.2618 174.886 30.4674C174.935 30.6093 174.984 30.7512 175.033 30.8931C175.134 31.1882 175.236 31.4834 175.337 31.7787C175.466 32.1571 175.596 32.5352 175.727 32.9133C175.827 33.2052 175.927 33.4972 176.028 33.7894C176.099 33.9966 176.17 34.2037 176.242 34.4109C176.284 34.5363 176.327 34.6617 176.371 34.791C176.409 34.9014 176.447 35.0118 176.486 35.1256C176.567 35.4029 176.567 35.4029 176.567 35.7353C176.639 35.7353 176.712 35.7353 176.787 35.7353C176.828 35.5311 176.828 35.5311 176.87 35.3228C177.018 34.653 177.234 34.0089 177.452 33.3589C177.495 33.2293 177.538 33.0998 177.582 32.9663C177.673 32.6937 177.763 32.4212 177.854 32.1488C177.993 31.733 178.131 31.3169 178.269 30.9007C178.357 30.6351 178.446 30.3694 178.534 30.1038C178.575 29.9801 178.616 29.8563 178.658 29.7288C178.697 29.6123 178.736 29.4958 178.777 29.3757C178.81 29.2742 178.844 29.1726 178.879 29.0679C179.013 28.6991 179.17 28.3393 179.324 27.9785C181.034 27.9785 182.745 27.9785 184.507 27.9785C184.426 28.4649 184.347 28.8242 184.179 29.2739C184.134 29.3962 184.089 29.5185 184.043 29.6445C183.993 29.7762 183.944 29.9079 183.893 30.0437C183.841 30.1839 183.789 30.3241 183.737 30.4644C183.598 30.8397 183.459 31.2148 183.319 31.5898C183.174 31.9777 183.03 32.3659 182.886 32.7541C182.683 33.3008 182.48 33.8475 182.276 34.3941C181.95 35.2702 181.626 36.147 181.303 37.0243C181.221 37.2476 181.139 37.4708 181.056 37.6941C180.942 38.0046 180.828 38.3151 180.713 38.6258C180.61 38.9063 180.507 39.1866 180.403 39.4669C180.373 39.5488 180.343 39.6306 180.312 39.7149C180.108 40.2659 180.108 40.2659 179.985 40.3893C179.776 40.3997 179.565 40.4024 179.355 40.4019C179.221 40.4019 179.086 40.4019 178.947 40.4019C178.799 40.4013 178.651 40.4008 178.503 40.4002C178.352 40.4 178.202 40.3998 178.051 40.3997C177.654 40.3993 177.257 40.3982 176.859 40.3969C176.454 40.3958 176.049 40.3953 175.644 40.3948C174.849 40.3936 174.053 40.3917 173.258 40.3893C172.888 39.6794 172.593 38.9544 172.309 38.206C172.261 38.0801 172.213 37.9543 172.163 37.8246C172.033 37.4848 171.903 37.1449 171.774 36.8049C171.639 36.4513 171.504 36.0979 171.369 35.7445C171.314 35.6014 171.259 35.4583 171.205 35.3152C171.177 35.2442 171.15 35.1732 171.122 35.1C171.04 34.8838 170.957 34.6676 170.875 34.4514C170.524 33.5322 170.17 32.6141 169.814 31.6967C169.726 31.4701 169.638 31.2435 169.55 31.0168C169.427 30.6976 169.303 30.3784 169.179 30.0594C169.065 29.7691 168.953 29.4785 168.841 29.1879C168.807 29.103 168.774 29.0181 168.74 28.9307C168.611 28.5973 168.516 28.3393 168.516 27.9785Z" fill="white"/>
<path d="M152.08 28.4464C152.955 29.2158 153.479 30.5044 153.607 31.6491C153.636 32.5675 153.627 33.4867 153.627 34.4055C151.99 34.4055 150.352 34.4055 148.665 34.4055C148.592 33.857 148.519 33.3085 148.444 32.7434C148.171 32.2027 148.05 31.9624 147.562 31.6353C147.051 31.5649 146.497 31.5222 146.016 31.7322C145.486 32.1409 145.289 32.6994 145.185 33.3405C145.109 34.0059 145.11 34.6749 145.101 35.344C145.098 35.4854 145.096 35.6268 145.094 35.7724C145.088 36.1455 145.082 36.5186 145.077 36.8917C145.071 37.2735 145.065 37.6553 145.059 38.0372C145.047 38.7843 145.036 39.5314 145.025 40.2785C143.351 40.2785 141.677 40.2785 139.952 40.2785C139.952 36.1829 139.952 32.0874 139.952 27.8677C141.59 27.8677 143.228 27.8677 144.915 27.8677C145.142 28.0959 145.071 28.5566 145.087 28.8719C145.092 28.956 145.097 29.04 145.102 29.1266C145.113 29.3349 145.125 29.5432 145.136 29.7515C145.181 29.6898 145.227 29.6281 145.274 29.5645C145.974 28.6937 147.061 27.8684 148.189 27.6655C149.609 27.5571 150.883 27.5805 152.08 28.4464Z" fill="white"/>
<path d="M115.855 31.005C116.308 31.4436 116.658 31.9153 116.698 32.5629C116.696 32.6502 116.694 32.7374 116.692 32.8273C116.69 32.96 116.69 32.96 116.688 33.0953C116.686 33.162 116.684 33.2287 116.682 33.2974C116.203 33.3111 115.725 33.3212 115.246 33.3278C115.083 33.3306 114.92 33.3344 114.757 33.3392C114.523 33.3459 114.289 33.3491 114.054 33.3515C113.913 33.3544 113.772 33.3573 113.627 33.3603C113.263 33.2974 113.263 33.2974 113.016 33.0295C112.92 32.8879 112.92 32.8879 112.822 32.7433C111.98 32.2803 110.94 32.2684 110.011 32.4706C109.713 32.5836 109.544 32.6798 109.403 32.9719C109.387 33.1959 109.387 33.1959 109.514 33.4082C110.351 33.6576 111.174 33.6695 112.043 33.6852C113.688 33.7151 115.195 33.8381 116.496 34.9405C116.999 35.5898 117.071 36.3134 117.061 37.1134C117.06 37.2063 117.059 37.2992 117.058 37.3949C117.032 38.3297 116.85 38.9327 116.172 39.5928C114.84 40.6573 113.083 40.6496 111.457 40.6455C111.315 40.6473 111.172 40.6491 111.025 40.651C109.45 40.6517 107.771 40.4814 106.557 39.3712C106.035 38.7996 105.622 38.1199 105.619 37.3281C105.636 37.143 105.636 37.143 105.654 36.9542C105.984 36.7882 106.276 36.8433 106.644 36.8568C106.757 36.8607 106.757 36.8607 106.873 36.8647C107.114 36.8732 107.356 36.8825 107.597 36.8918C107.761 36.8977 107.925 36.9036 108.089 36.9094C108.49 36.9237 108.892 36.9387 109.293 36.9542C109.366 37.1412 109.366 37.1412 109.441 37.3321C109.583 37.7418 109.583 37.7418 109.899 37.8878C110.437 37.9764 110.961 37.9791 111.506 37.9722C111.614 37.9722 111.722 37.9721 111.833 37.972C112.327 37.969 112.78 37.9497 113.263 37.8406C113.257 37.6789 113.247 37.5173 113.236 37.3558C113.231 37.2659 113.226 37.1759 113.22 37.0831C113.176 36.834 113.176 36.834 112.982 36.7074C112.316 36.4964 111.621 36.498 110.928 36.4788C107.692 36.385 107.692 36.385 106.468 35.2353C105.773 34.4484 105.677 33.6617 105.713 32.6563C105.764 32.0121 105.975 31.5455 106.426 31.0812C108.684 29.2845 113.614 29.1817 115.855 31.005ZM110.065 29.9731C110.065 30.0096 110.065 30.0462 110.065 30.0839C110.283 30.0839 110.502 30.0839 110.727 30.0839C110.727 30.0473 110.727 30.0107 110.727 29.9731C110.508 29.9731 110.29 29.9731 110.065 29.9731ZM111.94 29.9731C111.94 30.0096 111.94 30.0462 111.94 30.0839C112.158 30.0839 112.377 30.0839 112.602 30.0839C112.602 30.0473 112.602 30.0107 112.602 29.9731C112.383 29.9731 112.165 29.9731 111.94 29.9731ZM112.822 33.8514C112.822 33.888 112.822 33.9246 112.822 33.9623C113.077 33.9623 113.332 33.9623 113.594 33.9623C113.594 33.9257 113.594 33.8891 113.594 33.8514C113.339 33.8514 113.085 33.8514 112.822 33.8514ZM110.727 38.1731C110.727 38.2096 110.727 38.2462 110.727 38.2839C111.236 38.2839 111.746 38.2839 112.271 38.2839C112.271 38.2473 112.271 38.2107 112.271 38.1731C111.761 38.1731 111.252 38.1731 110.727 38.1731Z" fill="#01A0C7"/>
<path d="M201.05 23.3244C202.76 23.3244 204.471 23.3244 206.233 23.3244C206.236 25.5331 206.238 27.7417 206.239 29.9503C206.239 30.9757 206.24 32.0012 206.241 33.0266C206.243 33.92 206.243 34.8134 206.243 35.7069C206.244 36.1802 206.244 36.6536 206.245 37.127C206.246 37.572 206.246 38.017 206.246 38.462C206.246 38.6258 206.246 38.7896 206.246 38.9535C206.247 39.1761 206.247 39.3988 206.246 39.6215C206.246 39.7465 206.247 39.8714 206.247 40.0001C206.233 40.2785 206.233 40.2785 206.123 40.3893C204.449 40.3893 202.775 40.3893 201.05 40.3893C201.05 34.7579 201.05 29.1265 201.05 23.3244Z" fill="white"/>
<path d="M116.903 26.3163C119.947 26.302 122.991 26.3216 126.035 26.3613C126.312 26.3648 126.589 26.3681 126.866 26.3714C127.306 26.3766 127.746 26.3824 128.185 26.3886C128.35 26.3909 128.514 26.393 128.678 26.3949C128.904 26.3975 129.13 26.4009 129.355 26.4044C129.483 26.4061 129.61 26.4078 129.742 26.4096C130.027 26.4271 130.027 26.4271 130.137 26.5379C130.146 26.7757 130.149 27.0138 130.148 27.2517C130.147 27.4686 130.147 27.4686 130.147 27.69C130.146 27.8438 130.145 27.9977 130.144 28.1516C130.143 28.3059 130.143 28.4602 130.142 28.6145C130.141 28.9935 130.139 29.3725 130.137 29.7514C129.997 29.7542 129.857 29.757 129.713 29.7599C129.197 29.7703 128.68 29.7814 128.164 29.7927C127.94 29.7975 127.716 29.8021 127.492 29.8065C127.171 29.8129 126.85 29.82 126.529 29.8272C126.378 29.83 126.378 29.83 126.224 29.8328C125.773 29.7983 125.773 29.7983 125.395 29.9731C125.381 30.2968 125.374 30.618 125.372 30.9418C125.371 31.0435 125.37 31.1451 125.369 31.2498C125.365 31.5873 125.362 31.9249 125.36 32.2625C125.357 32.4958 125.355 32.7292 125.353 32.9626C125.347 33.5781 125.341 34.1937 125.336 34.8093C125.33 35.4369 125.324 36.0645 125.318 36.6921C125.306 37.9245 125.295 39.1569 125.284 40.3893C124.786 40.3975 124.287 40.4036 123.789 40.4076C123.619 40.4092 123.449 40.4115 123.28 40.4144C123.036 40.4184 122.792 40.4203 122.549 40.4218C122.435 40.4244 122.435 40.4244 122.318 40.427C122.104 40.4271 122.104 40.4271 121.755 40.3893C121.465 39.9522 121.505 39.5801 121.51 39.0731C121.51 38.9726 121.51 38.872 121.509 38.7684C121.51 38.4356 121.511 38.1029 121.513 37.7701C121.514 37.5395 121.514 37.309 121.514 37.0784C121.515 36.4712 121.517 35.864 121.519 35.2569C121.522 34.5285 121.523 33.8002 121.524 33.0718C121.527 31.965 121.531 30.8583 121.535 29.7515C120.006 29.7515 118.478 29.7515 116.903 29.7515C116.903 28.6179 116.903 27.4843 116.903 26.3163Z" fill="#01A0C7"/>
<path d="M94.048 30.1678C94.2382 30.1685 94.2382 30.1685 94.4322 30.1692C94.5699 30.1694 94.7075 30.1696 94.8493 30.1698C95.0659 30.1719 95.0659 30.1719 95.2869 30.1739C95.4314 30.174 95.5758 30.1741 95.7246 30.1741C96.8 30.1792 96.8 30.1792 97.0515 30.3055C97.0517 30.372 97.0518 30.4384 97.052 30.5069C97.0542 31.2045 97.0602 31.9021 97.0683 32.5996C97.0709 32.8593 97.0725 33.1189 97.0731 33.3786C96.9859 35.3797 96.9859 35.3797 97.7132 37.1758C98.4229 37.5454 99.3587 37.515 100.139 37.3974C100.653 37.1762 100.849 36.8469 101.111 36.3655C101.384 35.5146 101.494 34.7413 101.481 33.848C101.48 33.7464 101.479 33.6447 101.479 33.54C101.477 33.2191 101.473 32.8981 101.47 32.5771C101.467 32.253 101.464 31.9289 101.462 31.6047C101.461 31.4038 101.459 31.203 101.456 31.0021C101.454 30.7699 101.458 30.5377 101.463 30.3055C101.664 30.1032 101.981 30.1803 102.252 30.18C102.459 30.1798 102.459 30.1798 102.67 30.1796C102.815 30.18 102.96 30.1804 103.11 30.1809C103.328 30.1802 103.328 30.1802 103.549 30.1796C103.688 30.1797 103.826 30.1798 103.968 30.18C104.159 30.1802 104.159 30.1802 104.354 30.1804C104.661 30.1947 104.661 30.1947 104.882 30.3055C104.882 33.6332 104.882 36.9608 104.882 40.3893C103.79 40.3893 102.698 40.3893 101.573 40.3893C101.434 40.1095 101.452 39.9115 101.456 39.5998C101.457 39.4989 101.458 39.3981 101.459 39.2942C101.46 39.2168 101.462 39.1393 101.463 39.0596C101.349 39.1479 101.349 39.1479 101.232 39.2379C100.038 40.14 99.1159 40.519 97.6305 40.5278C97.5361 40.5301 97.4417 40.5324 97.3444 40.5347C96.3432 40.5408 95.4925 40.2874 94.7355 39.6136C94.1841 39.0568 94.1841 39.0568 94.1841 38.6163C94.1113 38.6163 94.0385 38.6163 93.9635 38.6163C93.5279 37.6547 93.4602 36.8065 93.4716 35.7591C93.4718 35.6048 93.4719 35.4506 93.4719 35.2963C93.4722 34.9759 93.474 34.6554 93.477 34.335C93.4808 33.924 93.4816 33.5131 93.4814 33.102C93.4815 32.7848 93.4827 32.4676 93.4843 32.1504C93.485 31.9987 93.4854 31.847 93.4856 31.6954C93.4861 31.4846 93.4882 31.2738 93.4904 31.063C93.4912 30.9431 93.492 30.8233 93.4929 30.6998C93.5357 30.2889 93.6416 30.2037 94.048 30.1678ZM101.463 35.292C101.573 35.5136 101.573 35.5136 101.573 35.5136L101.463 35.292ZM98.5955 37.619C98.5955 37.6556 98.5955 37.6922 98.5955 37.7298C98.9594 37.7298 99.3234 37.7298 99.6983 37.7298C99.6983 37.6933 99.6983 37.6567 99.6983 37.619C99.3344 37.619 98.9704 37.619 98.5955 37.619Z" fill="#01A0C7"/>
<path d="M91.3339 30.4726C92.1433 31.125 92.5781 31.9384 92.7504 32.965C92.7742 33.3351 92.7716 33.7024 92.7642 34.0731C92.7632 34.1695 92.7622 34.2659 92.7612 34.3653C92.7586 34.6003 92.7546 34.8354 92.7504 35.0704C92.299 35.0759 91.8475 35.0799 91.3961 35.0826C91.2425 35.0837 91.0888 35.0852 90.9352 35.0871C90.7146 35.0898 90.494 35.0909 90.2733 35.092C90.1405 35.0932 90.0076 35.0943 89.8708 35.0955C89.5522 35.0704 89.5521 35.0704 89.3316 34.8488C89.2434 34.4875 89.1766 34.1244 89.1084 33.7588C88.9901 33.3738 88.8671 33.2167 88.5596 32.965C88.1745 32.7715 87.7675 32.8077 87.3465 32.8542C86.9315 33.0145 86.7494 33.1779 86.5373 33.57C86.1753 34.3991 86.052 35.0923 86.0554 35.9932C86.0537 36.1168 86.052 36.2403 86.0503 36.3676C86.0456 36.7571 86.0446 37.1465 86.0437 37.5359C86.0412 37.8021 86.0384 38.0683 86.0353 38.3345C86.028 38.9826 86.0256 39.6304 86.023 40.2785C84.8948 40.2785 83.7666 40.2785 82.6042 40.2785C82.4648 39.8583 82.4777 39.4646 82.4779 39.0269C82.4776 38.9331 82.4772 38.8394 82.4768 38.7429C82.4758 38.4327 82.4755 38.1226 82.4754 37.8125C82.4751 37.5974 82.4747 37.3822 82.4743 37.1671C82.4736 36.7162 82.4734 36.2652 82.4735 35.8143C82.4735 35.2353 82.472 34.6564 82.4701 34.0774C82.4689 33.6332 82.4687 33.189 82.4687 32.7448C82.4686 32.5312 82.4681 32.3177 82.4673 32.1042C82.4662 31.8062 82.4665 31.5083 82.4672 31.2104C82.4665 31.1215 82.4659 31.0327 82.4653 30.9412C82.4688 30.3308 82.4688 30.3308 82.7145 30.0839C83.0195 30.057 83.0195 30.057 83.4038 30.0584C83.5414 30.0586 83.679 30.0588 83.8208 30.059C84.0375 30.061 84.0375 30.061 84.2585 30.0631C84.4029 30.0632 84.5474 30.0633 84.6962 30.0633C85.7716 30.0684 85.7716 30.0684 86.023 30.1947C86.0687 30.4722 86.0687 30.4722 86.092 30.8111C86.1002 30.9232 86.1085 31.0354 86.117 31.1509C86.1224 31.2376 86.1278 31.3243 86.1333 31.4136C86.2391 31.2971 86.2391 31.2971 86.347 31.1782C87.7118 29.8223 89.6919 29.3189 91.3339 30.4726Z" fill="#01A0C7"/>
<path d="M76.9539 27.1759C77.1441 27.1766 77.1441 27.1766 77.3382 27.1773C77.4758 27.1775 77.6134 27.1777 77.7552 27.1779C77.9718 27.18 77.9718 27.18 78.1929 27.1821C78.3373 27.1821 78.4817 27.1822 78.6305 27.1823C79.7059 27.1873 79.7059 27.1873 79.9574 27.3136C79.9574 28.2278 79.9574 29.142 79.9574 30.0839C80.3941 30.0839 80.8309 30.0839 81.2808 30.0839C81.39 30.1205 81.4992 30.157 81.6117 30.1947C81.6117 31.1455 81.6117 32.0962 81.6117 33.0758C81.1022 33.0758 80.5926 33.0758 80.0677 33.0758C80.065 33.6241 80.063 34.1724 80.0616 34.7207C80.0611 34.9073 80.0603 35.0939 80.0594 35.2804C80.058 35.5483 80.0574 35.8162 80.0569 36.0841C80.0564 36.1678 80.0558 36.2515 80.0552 36.3378C80.0464 36.771 80.0464 36.771 80.178 37.1758C80.4269 37.2193 80.4269 37.2193 80.7156 37.2312C81.1243 37.2552 81.2597 37.2725 81.6117 37.5082C81.6492 37.7877 81.6492 37.7877 81.644 38.1359C81.6424 38.3223 81.6424 38.3223 81.6408 38.5125C81.638 38.6427 81.6352 38.773 81.6324 38.9072C81.6301 39.1039 81.6301 39.1039 81.6278 39.3046C81.6239 39.6293 81.6185 39.9539 81.6117 40.2785C81.1724 40.284 80.733 40.288 80.2937 40.2907C80.0717 40.2923 79.8498 40.2952 79.6278 40.298C77.8515 40.307 77.8515 40.307 77.28 39.8608C77.2196 39.7861 77.1592 39.7114 77.0969 39.6344C77.0033 39.5237 77.0033 39.5237 76.9078 39.4106C76.7429 39.1441 76.6913 38.9253 76.6489 38.6164C76.6125 38.6164 76.5761 38.6164 76.5386 38.6164C76.575 36.788 76.6114 34.9596 76.6489 33.0758C76.103 33.0758 75.5571 33.0758 74.9946 33.0758C74.7739 32.6322 74.8639 32.0675 74.8636 31.5799C74.8623 31.4612 74.8609 31.3425 74.8596 31.2202C74.8593 31.1069 74.8591 30.9936 74.8589 30.8769C74.8585 30.7727 74.858 30.6685 74.8575 30.5611C74.8843 30.3055 74.8843 30.3055 75.1049 30.0839C75.4159 30.0623 75.4159 30.0623 75.7804 30.0701C75.9012 30.0721 76.0221 30.0741 76.1466 30.0761C76.2395 30.0787 76.3325 30.0813 76.4283 30.0839C76.4272 30.0045 76.426 29.9251 76.4248 29.8433C76.4202 29.4849 76.4174 29.1265 76.4145 28.768C76.4127 28.643 76.4108 28.5181 76.4089 28.3893C76.4082 28.27 76.4075 28.1507 76.4068 28.0279C76.4056 27.9176 76.4045 27.8073 76.4033 27.6937C76.4408 27.2896 76.5582 27.2108 76.9539 27.1759ZM76.5386 27.4245C76.5386 28.3386 76.5386 29.2528 76.5386 30.1947C76.575 30.1947 76.6114 30.1947 76.6489 30.1947C76.6489 29.2805 76.6489 28.3663 76.6489 27.4245C76.6125 27.4245 76.5761 27.4245 76.5386 27.4245Z" fill="#01A0C7"/>
<path d="M76.4283 33.1866C76.4647 33.1866 76.5011 33.1866 76.5386 33.1866C76.5386 34.7224 76.5386 36.2583 76.5386 37.8406C76.5022 37.8406 76.4658 37.8406 76.4283 37.8406C76.4283 36.3048 76.4283 34.769 76.4283 33.1866Z" fill="#01A0C7"/>
<path d="M101.353 30.4163C101.389 30.4163 101.425 30.4163 101.463 30.4163C101.463 31.9156 101.463 33.4149 101.463 34.9596C101.426 34.9596 101.39 34.9596 101.353 34.9596C101.353 33.4603 101.353 31.961 101.353 30.4163Z" fill="#01A0C7"/>
<path d="M105.874 36.7325C106.893 36.7325 107.912 36.7325 108.962 36.7325C108.962 36.7691 108.962 36.8057 108.962 36.8434C107.943 36.8434 106.924 36.8434 105.874 36.8434C105.874 36.8068 105.874 36.7702 105.874 36.7325Z" fill="#01A0C7"/>
<path d="M116.682 26.5379C116.719 26.5379 116.755 26.5379 116.792 26.5379C116.792 27.5253 116.792 28.5126 116.792 29.5298C116.756 29.5298 116.72 29.5298 116.682 29.5298C116.682 28.5425 116.682 27.5552 116.682 26.5379Z" fill="#01A0C7"/>
</g>
</g>
</svg>
